<?xml version="1.0" encoding="UTF-8"?> <svg xmlns="http://www.w3.org/2000/svg" xmlns:xlink="http://www.w3.org/1999/xlink" version="1.1" id="Layer_1" x="0px" y="0px" viewBox="0 0 65 65" style="enable-background:new 0 0 65 65;" xml:space="preserve"> <style type="text/css"> .st0{fill:#1C0A5A;} .st1{fill-rule:evenodd;clip-rule:evenodd;fill:#1C0A5A;} </style> <g> <path class="st0" d="M32.4,4.7c1.2,0,2.1,1,2.1,2.1v2.2c0,1.2-1,2.1-2.1,2.1c-1.2,0-2.1-1-2.1-2.1V6.8C30.2,5.7,31.2,4.7,32.4,4.7z "></path> <path class="st0" d="M31.1,29.2c-0.4,0.2-0.7,0.6-0.9,1.3c-0.4,1.1-1.6,1.7-2.7,1.3c-1.1-0.4-1.7-1.6-1.3-2.7 c1.1-3.3,4-4.5,6.3-4.5c3.5,0,6.3,2.8,6.3,6.3c0,1.8-0.6,3.1-1.8,4.2c-1,0.9-2.4,1.6-3.6,2.2c-1.1,0.5-2.3,0.1-2.8-1 c-0.5-1.1-0.1-2.3,1-2.8c1.3-0.6,2.1-1.1,2.5-1.5c0.3-0.3,0.4-0.5,0.4-1.1c0-1.1-0.9-2.1-2.1-2.1c-0.3,0-0.6,0-0.9,0.1 C31.4,29,31.2,29.1,31.1,29.2z"></path> <path class="st0" d="M32.3,39.7c-1.2,0-2.1,1-2.1,2.1s1,2.1,2.1,2.1h0c1.2,0,2.1-1,2.1-2.1S33.5,39.7,32.3,39.7L32.3,39.7z"></path> <path class="st1" d="M23.8,48.9c-6.1-3.1-10.2-9.5-10.2-16.8c0-10.4,8.4-18.9,18.9-18.9c10.4,0,18.9,8.4,18.9,18.9 c0,7.3-4.2,13.6-10.2,16.8V52c0,2.5-1.5,4.6-3.7,5.4c-0.5,1.7-2.1,2.8-3.9,2.8h-1.9c-1.8,0-3.4-1.2-3.9-2.8 c-2.2-0.8-3.7-2.9-3.7-5.4V48.9z M17.8,32.1c0-8.1,6.5-14.6,14.6-14.6c8.1,0,14.6,6.5,14.6,14.6c0,6.1-3.7,11.3-8.9,13.5 c-0.8,0.3-1.3,1.1-1.3,2V52c0,0.8-0.7,1.5-1.5,1.5h-5.7c-0.8,0-1.5-0.7-1.5-1.5v-4.5c0-0.9-0.5-1.6-1.3-2 C21.5,43.4,17.8,38.2,17.8,32.1z"></path> <path class="st0" d="M60.2,30.1c0,1.2-1,2.1-2.1,2.1h-2.2c-1.2,0-2.1-1-2.1-2.1c0-1.2,1-2.1,2.1-2.1h2.2C59.3,28,60.2,29,60.2,30.1 z"></path> <path class="st0" d="M11.3,30.1c0,1.2-1,2.1-2.1,2.1H6.9c-1.2,0-2.1-1-2.1-2.1c0-1.2,1-2.1,2.1-2.1h2.2C10.3,28,11.3,29,11.3,30.1z "></path> <path class="st0" d="M14.4,16.9c-0.8,0.8-2.2,0.8-3,0l-1.6-1.6c-0.8-0.8-0.8-2.2,0-3c0.8-0.8,2.2-0.8,3,0l1.6,1.6 C15.2,14.7,15.2,16.1,14.4,16.9z"></path> <path class="st0" d="M49.8,45.1c0.8-0.8,2.2-0.8,3,0l1.6,1.6c0.8,0.8,0.8,2.2,0,3c-0.8,0.8-2.2,0.8-3,0l-1.6-1.6 C48.9,47.3,48.9,46,49.8,45.1z"></path> <path class="st0" d="M49.8,16.9c0.8,0.8,2.2,0.8,3,0l1.6-1.6c0.8-0.8,0.8-2.2,0-3c-0.8-0.8-2.2-0.8-3,0l-1.6,1.6 C48.9,14.7,48.9,16.1,49.8,16.9z"></path> <path class="st0" d="M14.4,45.1c-0.8-0.8-2.2-0.8-3,0l-1.6,1.6c-0.8,0.8-0.8,2.2,0,3c0.8,0.8,2.2,0.8,3,0l1.6-1.6 C15.2,47.3,15.2,46,14.4,45.1z"></path> </g> </svg> 